{"title":"Intruders 2011 TS XviD Feel-Free","uid":7057439,"size":1124962425,"categoryP":"video","categoryS":"movies","magnet":"?xt=urn:btih:a38e7e0c0eb7deae8f89f33039357c5d0c460daa&amp;dn=Intruders+2011+TS+XviD+Feel-Free&amp;tr=udp%3A%2F%2Ftracker.openbittorrent.com%3A80&amp;tr=udp%3A%2F%2Fopen.demonii.com%3A1337&amp;tr=udp%3A%2F%2Ftracker.coppersurfer.tk%3A6969&amp;tr=udp%3A%2F%2Fexodus.desync.com%3A6969","seeders":1,"leechers":0,"uploader":"MScope40","files":9,"time":1330185917,"description":"Genre: Horror | Thriller\nLanguage:English\nIMDb:http://www.imdb.com/title/tt1634121/\nSource:26K Thanks!\nEncoder:Tony\n\nFormat : AVI\nFormat/Info : Audio Video Interleave\nFile size : 1.05 GiB\nDuration : 1h 34mn\nOverall bit rate : 1 585 Kbps\n\nVideo\nID : 0\nFormat : MPEG-4 Visual\nFormat profile : Advanced Simple@L5\nFormat settings, BVOP : 2\nFormat settings, QPel : No\nFormat settings, GMC : No warppoints\nFormat settings, Matrix : Default (H.263)\nMuxing mode : Packed bitstream\nCodec ID : XVID\nCodec ID/Hint : XviD\nDuration : 1h 34mn\nBit rate : 1 255 Kbps\nWidth : 720 pixels\nHeight : 304 pixels\nDisplay aspect ratio : 2.35:1\nFrame rate : 25.000 fps\nColor space : YUV\nChroma subsampling : 4:2:0\nBit depth : 8 bits\nScan type : Progressive\nCompression mode : Lossy\nBits/(Pixel*Frame) : 0.229\nStream size : 848 MiB (79%)\nWriting library : XviD 64\n\nAudio\nID : 1\nFormat : AC-3\nFormat/Info : Audio Coding 3\nMode extension : CM (complete main)\nCodec ID : 2000\nDuration : 1h 34mn\nBit rate mode : Constant\nBit rate : 320 Kbps\nChannel(s) : 2 channels\nChannel positions : Front: L R\nSampling rate : 48.0 KHz\nBit depth : 16 bits\nCompression mode : Lossy\nDelay relative to video : 350ms\nStream size : 216 MiB (20%)\nAlignment : Split accross interleaves\nInterleave, duration : 40 ms (1.00 video frame)\nInterleave, preload duration : 500 ms\n\n\nPlot:\nTwo children living in different countries are visited nightly by a faceless being who wants to take possession of them.\n\n &lt;a href=&quot;\nhttp://img705.imageshack.us/img705/4549/vlcsnap2012022516h19m27.png&quot; rel=&quot;nofollow&quot; target=&quot;_NEW&quot;&gt;\nhttp://img705.imageshack.us/img705/4549/vlcsnap2012022516h19m27.png&lt;/a&gt;\n &lt;a href=&quot;\nhttp://img196.imageshack.us/img196/8397/vlcsnap2012022516h19m36.png&quot; rel=&quot;nofollow&quot; target=&quot;_NEW&quot;&gt;\nhttp://img196.imageshack.us/img196/8397/vlcsnap2012022516h19m36.png&lt;/a&gt;\n &lt;a href=&quot;\nhttp://img528.imageshack.us/img528/1686/vlcsnap2012022516h19m50.png&quot; rel=&quot;nofollow&quot; target=&quot;_NEW&quot;&gt;\nhttp://img528.imageshack.us/img528/1686/vlcsnap2012022516h19m50.png&lt;/a&gt;\n &lt;a href=&quot;\nhttp://img263.imageshack.us/img263/7049/vlcsnap2012022516h21m16.png&quot; rel=&quot;nofollow&quot; target=&quot;_NEW&quot;&gt;\nhttp://img263.imageshack.us/img263/7049/vlcsnap2012022516h21m16.png&lt;/a&gt;","torrent":{"xt":"urn:btih:a38e7e0c0eb7deae8f89f33039357c5d0c460daa","amp;dn":"Intruders+2011+TS+XviD+Feel-Free","amp;tr":["udp%3A%2F%2Ftracker.openbittorrent.com%3A80","udp%3A%2F%2Fopen.demonii.com%3A1337","udp%3A%2F%2Ftracker.coppersurfer.tk%3A6969","udp%3A%2F%2Fexodus.desync.com%3A6969"],"infoHash":"a38e7e0c0eb7deae8f89f33039357c5d0c460daa","infoHashBuffer":{"type":"Buffer","data":[163,142,126,12,14,183,222,174,143,137,243,48,57,53,124,93,12,70,13,170]},"announce":[],"urlList":[]}}